<mxfile host="app.diagrams.net" agent="Mozilla/5.0 (Windows NT 10.0; Win64; x64) AppleWebKit/537.36 (KHTML, like Gecko) Chrome/127.0.0.0 Safari/537.36" version="24.7.5">
  <diagram name="Page-1" id="By-Rk5rNfURSygqSpUi-">
    <mxGraphModel dx="1434" dy="772" grid="1" gridSize="10" guides="1" tooltips="1" connect="1" arrows="1" fold="1" page="1" pageScale="1" pageWidth="850" pageHeight="1100" math="0" shadow="0">
      <root>
        <mxCell id="0" />
        <mxCell id="1" parent="0" />
        <mxCell id="pGERE-YlQwHiATeEiKHN-6" style="edgeStyle=orthogonalEdgeStyle;rounded=0;orthogonalLoop=1;jettySize=auto;html=1;exitX=0.5;exitY=1;exitDx=0;exitDy=0;" edge="1" parent="1" source="pGERE-YlQwHiATeEiKHN-1">
          <mxGeometry relative="1" as="geometry">
            <mxPoint x="425" y="180" as="targetPoint" />
          </mxGeometry>
        </mxCell>
        <mxCell id="pGERE-YlQwHiATeEiKHN-1" value="" style="rounded=0;whiteSpace=wrap;html=1;" vertex="1" parent="1">
          <mxGeometry x="325" y="50" width="200" height="60" as="geometry" />
        </mxCell>
        <mxCell id="pGERE-YlQwHiATeEiKHN-2" value="Required to Expand the Server Partition Size" style="text;html=1;align=center;verticalAlign=middle;whiteSpace=wrap;rounded=0;" vertex="1" parent="1">
          <mxGeometry x="350" y="65" width="150" height="30" as="geometry" />
        </mxCell>
        <mxCell id="pGERE-YlQwHiATeEiKHN-13" style="edgeStyle=orthogonalEdgeStyle;rounded=0;orthogonalLoop=1;jettySize=auto;html=1;" edge="1" parent="1" source="pGERE-YlQwHiATeEiKHN-3">
          <mxGeometry relative="1" as="geometry">
            <mxPoint x="420" y="310" as="targetPoint" />
          </mxGeometry>
        </mxCell>
        <mxCell id="pGERE-YlQwHiATeEiKHN-3" value="" style="rounded=0;whiteSpace=wrap;html=1;" vertex="1" parent="1">
          <mxGeometry x="320" y="190" width="200" height="60" as="geometry" />
        </mxCell>
        <mxCell id="pGERE-YlQwHiATeEiKHN-4" value="Choose the EvS Volume that owns that partiton" style="text;html=1;align=center;verticalAlign=middle;whiteSpace=wrap;rounded=0;" vertex="1" parent="1">
          <mxGeometry x="345" y="205" width="150" height="30" as="geometry" />
        </mxCell>
        <mxCell id="pGERE-YlQwHiATeEiKHN-14" style="edgeStyle=orthogonalEdgeStyle;rounded=0;orthogonalLoop=1;jettySize=auto;html=1;" edge="1" parent="1" source="pGERE-YlQwHiATeEiKHN-7">
          <mxGeometry relative="1" as="geometry">
            <mxPoint x="425" y="430" as="targetPoint" />
          </mxGeometry>
        </mxCell>
        <mxCell id="pGERE-YlQwHiATeEiKHN-7" value="" style="rounded=0;whiteSpace=wrap;html=1;" vertex="1" parent="1">
          <mxGeometry x="325" y="320" width="200" height="60" as="geometry" />
        </mxCell>
        <mxCell id="pGERE-YlQwHiATeEiKHN-8" value="Take a Snapshot of the EvS Volume" style="text;html=1;align=center;verticalAlign=middle;whiteSpace=wrap;rounded=0;" vertex="1" parent="1">
          <mxGeometry x="350" y="335" width="150" height="30" as="geometry" />
        </mxCell>
        <mxCell id="pGERE-YlQwHiATeEiKHN-15" style="edgeStyle=orthogonalEdgeStyle;rounded=0;orthogonalLoop=1;jettySize=auto;html=1;" edge="1" parent="1" source="pGERE-YlQwHiATeEiKHN-9">
          <mxGeometry relative="1" as="geometry">
            <mxPoint x="420" y="550" as="targetPoint" />
          </mxGeometry>
        </mxCell>
        <mxCell id="pGERE-YlQwHiATeEiKHN-9" value="" style="rounded=0;whiteSpace=wrap;html=1;" vertex="1" parent="1">
          <mxGeometry x="320" y="440" width="200" height="60" as="geometry" />
        </mxCell>
        <mxCell id="pGERE-YlQwHiATeEiKHN-10" value="Expand EvS Volume using API" style="text;html=1;align=center;verticalAlign=middle;whiteSpace=wrap;rounded=0;" vertex="1" parent="1">
          <mxGeometry x="345" y="455" width="150" height="30" as="geometry" />
        </mxCell>
        <mxCell id="pGERE-YlQwHiATeEiKHN-11" value="" style="rounded=0;whiteSpace=wrap;html=1;" vertex="1" parent="1">
          <mxGeometry x="320" y="560" width="200" height="60" as="geometry" />
        </mxCell>
        <mxCell id="pGERE-YlQwHiATeEiKHN-12" value="Run Ansible to extend Partitions within Server" style="text;html=1;align=center;verticalAlign=middle;whiteSpace=wrap;rounded=0;" vertex="1" parent="1">
          <mxGeometry x="345" y="575" width="150" height="30" as="geometry" />
        </mxCell>
        <mxCell id="pGERE-YlQwHiATeEiKHN-17" style="edgeStyle=orthogonalEdgeStyle;rounded=0;orthogonalLoop=1;jettySize=auto;html=1;" edge="1" parent="1" source="pGERE-YlQwHiATeEiKHN-16">
          <mxGeometry relative="1" as="geometry">
            <mxPoint x="430" y="531" as="targetPoint" />
          </mxGeometry>
        </mxCell>
        <mxCell id="pGERE-YlQwHiATeEiKHN-16" value="Need to verify Size expanded Successfully" style="rounded=0;whiteSpace=wrap;html=1;" vertex="1" parent="1">
          <mxGeometry x="561" y="511" width="170" height="40" as="geometry" />
        </mxCell>
        <mxCell id="pGERE-YlQwHiATeEiKHN-19" style="edgeStyle=orthogonalEdgeStyle;rounded=0;orthogonalLoop=1;jettySize=auto;html=1;" edge="1" parent="1" source="pGERE-YlQwHiATeEiKHN-18">
          <mxGeometry relative="1" as="geometry">
            <mxPoint x="430" y="410" as="targetPoint" />
          </mxGeometry>
        </mxCell>
        <mxCell id="pGERE-YlQwHiATeEiKHN-18" value="Need to verify the snapshot capture process completed" style="rounded=0;whiteSpace=wrap;html=1;" vertex="1" parent="1">
          <mxGeometry x="561" y="390" width="170" height="40" as="geometry" />
        </mxCell>
      </root>
    </mxGraphModel>
  </diagram>
</mxfile>
